<svg width="196" height="189" viewBox="0 0 196 189" fill="none" xmlns="http://www.w3.org/2000/svg">
<path d="M138.2 93H161.4V159.6C161.4 166.2 162 167 164.8 167C165.8 167 170.2 167 171.4 167C174.6 167 175.2 162.8 175.8 139.8C180.4 143.6 189.8 147.2 195.8 149C194 178.2 188.8 187 173.8 187C170.6 187 163.4 187 160.2 187C142.2 187 138.2 180 138.2 159.8V93ZM108.8 34V74.6H160.4V34H108.8ZM86.2 12.6H184.2V96H86.2V12.6ZM7.8 37.2H69V58.8H7.8V37.2ZM33.8 105.4L57.2 77.4V188.2H33.8V105.4ZM33.8 0.39999H57.2V47.4H33.8V0.39999ZM56.8 81.8C63.2 86.8 84.2 106.6 89.2 111.6L74.6 131.6C67.4 121 51.6 102.6 43.2 94L56.8 81.8ZM60.8 37.2H65.4L69.6 36.4L82.8 45C68.6 84 40 119.2 11.6 138C9.6 131.6 3.8 119.8 0.4 115.2C26 100.4 50.8 71 60.8 41.6V37.2ZM103.8 89H127.2C125.4 134.6 120.2 169 83.2 189C80.2 183 73.4 174.2 68 169.8C99.8 153.8 102.6 126.6 103.8 89Z" fill="black"/>
</svg>
